
<svg xmlns="http://www.w3.org/2000/svg" xmlns:xlink="http://www.w3.org/1999/xlink" width="64" height="64" viewBox="0 0 64 64" version="1.1">
<g id="surface1">
<path style=" stroke:none;fill-rule:nonzero;fill:rgb(100%,100%,100%);fill-opacity:1;" d="M 44.160156 14.507812 L 40.292969 18.375 C 44.90625 21.171875 48 26.214844 48 32 C 48 40.835938 40.835938 48 32 48 C 23.164062 48 16 40.835938 16 32 C 16 26.214844 19.09375 21.171875 23.679688 18.347656 L 19.839844 14.507812 C 14.292969 18.347656 10.667969 24.746094 10.667969 32 C 10.667969 43.78125 20.21875 53.332031 32 53.332031 C 43.78125 53.332031 53.332031 43.78125 53.332031 32 C 53.332031 24.746094 49.707031 18.347656 44.160156 14.507812 M 34.667969 8 L 29.332031 8 L 29.332031 34.667969 L 34.667969 34.667969 "/>
</g>
</svg>
